<svg xmlns="http://www.w3.org/2000/svg" version="1.1" xmlns:xlink="http://www.w3.org/1999/xlink" xmlns:svgjs="http://svgjs.dev/svgjs" viewBox="0 0 6.042040069211301 2.623989740514655"><g transform="matrix(1,0,0,1,1.4260188139025258,0.9689948702573273)"><rect width="6.042040069211301" height="6.042040069211301" x="-1.4260188139025258" y="-2.6780200346056504" fill="#ffffff"></rect><g transform="matrix(1,0,0,1,0,0)"><g clip-path="url(#SvgjsClipPath1002)"><path d=" M -1.0999999999999996 -0.6429760563548017 L 4.29000244140625 -0.6429760563548017 L 4.29000244140625 1.3289760563548019 L -1.0999999999999996 1.3289760563548019 Z" fill="#ffffff" transform="matrix(1,0,0,1,0,0)" fill-rule="nonzero"></path></g></g><g transform="matrix(1,0,0,1,0,0)"><path d=" M 0.242 0.5950000000000001 C 0.255 0.5660000000000001 0.334 0.25400000000000006 0.353 0.19600000000000006 C 0.362 0.16900000000000004 0.387 0.131 0.387 0.123 C 0.387 0.11499999999999999 0.359 0.09700000000000009 0.334 0.08400000000000007 L 0.484 0.08400000000000007 C 0.529 0.08400000000000007 0.543 0.08200000000000007 0.5650000000000001 0.052000000000000046 C 0.581 0.029000000000000026 0.583 0.020000000000000018 0.583 0.013000000000000012 C 0.583 0.0040000000000000036 0.5740000000000001 0 0.5650000000000001 0 L 0.154 0 C 0.101 0 0 0.128 0 0.16500000000000004 C 0 0.19000000000000006 0.066 0.28800000000000003 0.08600000000000001 0.28800000000000003 C 0.10200000000000001 0.28800000000000003 0.14 0.26500000000000007 0.14 0.25100000000000006 C 0.14 0.23700000000000004 0.108 0.15600000000000003 0.108 0.133 C 0.108 0.119 0.135 0.08400000000000007 0.152 0.08400000000000007 L 0.28200000000000003 0.08400000000000007 C 0.266 0.10400000000000009 0.245 0.14 0.23900000000000002 0.16300000000000003 C 0.224 0.22100000000000003 0.14 0.534 0.13 0.5650000000000001 C 0.123 0.5860000000000001 0.077 0.621 0.077 0.634 C 0.077 0.647 0.14200000000000002 0.6960000000000001 0.152 0.6960000000000001 C 0.163 0.6960000000000001 0.226 0.633 0.242 0.5950000000000001 M 0.66900537109375 0.335 C 0.66900537109375 0.36300000000000004 0.63800537109375 0.48400000000000004 0.61800537109375 0.526 C 0.5900053710937501 0.5840000000000001 0.54000537109375 0.619 0.52000537109375 0.619 C 0.50300537109375 0.619 0.48500537109374997 0.6020000000000001 0.48500537109374997 0.5790000000000001 C 0.48500537109374997 0.49100000000000005 0.56500537109375 0.30600000000000005 0.61500537109375 0.30600000000000005 C 0.63100537109375 0.30600000000000005 0.66900537109375 0.31900000000000006 0.66900537109375 0.335 M 0.88700537109375 0.4600000000000001 C 0.8380053710937501 0.55 0.78400537109375 0.627 0.75400537109375 0.627 C 0.74500537109375 0.627 0.7270053710937501 0.6120000000000001 0.7270053710937501 0.5990000000000001 C 0.7270053710937501 0.519 0.79500537109375 0.35300000000000004 0.79500537109375 0.31800000000000006 C 0.79500537109375 0.29300000000000004 0.7350053710937501 0.28600000000000003 0.7090053710937501 0.28600000000000003 C 0.7090053710937501 0.28600000000000003 0.65800537109375 0.22600000000000003 0.57800537109375 0.22600000000000003 C 0.48700537109375 0.22600000000000003 0.36800537109375 0.44700000000000006 0.36800537109375 0.5790000000000001 C 0.36800537109375 0.633 0.45100537109375 0.6960000000000001 0.49700537109375 0.6960000000000001 C 0.54800537109375 0.6960000000000001 0.60800537109375 0.63 0.60800537109375 0.63 C 0.61600537109375 0.658 0.69900537109375 0.6960000000000001 0.74400537109375 0.6960000000000001 C 0.81600537109375 0.6960000000000001 0.87500537109375 0.6050000000000001 0.93000537109375 0.5050000000000001 C 0.93000537109375 0.5050000000000001 0.94300537109375 0.48200000000000004 0.94300537109375 0.4700000000000001 C 0.94300537109375 0.4580000000000001 0.92200537109375 0.44200000000000006 0.90900537109375 0.44200000000000006 C 0.89600537109375 0.44200000000000006 0.88700537109375 0.4600000000000001 0.88700537109375 0.4600000000000001 M 1.00002392578125 0.4700000000000001 C 1.0090239257812499 0.42300000000000004 1.06802392578125 0.30400000000000005 1.10702392578125 0.30400000000000005 C 1.12102392578125 0.30400000000000005 1.13702392578125 0.31500000000000006 1.13702392578125 0.32900000000000007 C 1.13702392578125 0.35600000000000004 1.09602392578125 0.4700000000000001 1.00002392578125 0.4700000000000001 M 0.86702392578125 0.553 C 0.86702392578125 0.631 0.98802392578125 0.6960000000000001 1.07602392578125 0.6960000000000001 C 1.15702392578125 0.6960000000000001 1.24402392578125 0.634 1.31202392578125 0.5050000000000001 C 1.31202392578125 0.5050000000000001 1.32402392578125 0.48200000000000004 1.32402392578125 0.4700000000000001 C 1.32402392578125 0.4580000000000001 1.30302392578125 0.44200000000000006 1.29002392578125 0.44200000000000006 C 1.2770239257812501 0.44200000000000006 1.2690239257812501 0.4600000000000001 1.2690239257812501 0.4600000000000001 C 1.20402392578125 0.5880000000000001 1.12502392578125 0.625 1.07102392578125 0.625 C 1.02802392578125 0.625 0.98502392578125 0.5880000000000001 0.98502392578125 0.5640000000000001 C 0.98502392578125 0.532 0.99302392578125 0.515 0.99302392578125 0.515 C 0.99302392578125 0.515 1.04202392578125 0.529 1.08702392578125 0.529 C 1.1520239257812501 0.529 1.21602392578125 0.36900000000000005 1.21602392578125 0.31900000000000006 C 1.21602392578125 0.276 1.12402392578125 0.22600000000000003 1.07302392578125 0.22600000000000003 C 0.98002392578125 0.22600000000000003 0.86702392578125 0.44000000000000006 0.86702392578125 0.553 M 1.47704296875 0.6090000000000001 C 1.47704296875 0.654 1.56104296875 0.6960000000000001 1.60604296875 0.6960000000000001 C 1.6790429687500001 0.6960000000000001 1.73704296875 0.6050000000000001 1.7920429687500001 0.5050000000000001 C 1.7920429687500001 0.5050000000000001 1.80504296875 0.48200000000000004 1.80504296875 0.4700000000000001 C 1.80504296875 0.4580000000000001 1.7840429687500001 0.44200000000000006 1.77104296875 0.44200000000000006 C 1.7580429687499999 0.44200000000000006 1.74904296875 0.4600000000000001 1.74904296875 0.4600000000000001 C 1.70004296875 0.55 1.64504296875 0.627 1.61604296875 0.627 C 1.60704296875 0.627 1.59004296875 0.6120000000000001 1.59004296875 0.5990000000000001 C 1.59004296875 0.546 1.65204296875 0.35100000000000003 1.65204296875 0.30400000000000005 C 1.65204296875 0.26700000000000007 1.59704296875 0.22600000000000003 1.56804296875 0.22600000000000003 C 1.50804296875 0.22600000000000003 1.42504296875 0.29300000000000004 1.42504296875 0.29300000000000004 C 1.42504296875 0.29300000000000004 1.45304296875 0.19800000000000006 1.47704296875 0.11399999999999999 C 1.47904296875 0.1060000000000001 1.48204296875 0.09600000000000009 1.48204296875 0.08900000000000008 C 1.48204296875 0.07200000000000006 1.41504296875 0.03600000000000003 1.39604296875 0.03600000000000003 C 1.38804296875 0.03600000000000003 1.37904296875 0.04200000000000004 1.37504296875 0.05700000000000005 C 1.34604296875 0.14600000000000002 1.22504296875 0.6070000000000001 1.22504296875 0.643 C 1.22504296875 0.67 1.28404296875 0.6960000000000001 1.30804296875 0.6960000000000001 C 1.32204296875 0.6960000000000001 1.32504296875 0.686 1.32904296875 0.673 C 1.33504296875 0.642 1.37504296875 0.47800000000000004 1.40204296875 0.39300000000000007 C 1.41504296875 0.35000000000000003 1.47304296875 0.31300000000000006 1.49704296875 0.31300000000000006 C 1.51004296875 0.31300000000000006 1.52704296875 0.33000000000000007 1.52704296875 0.34700000000000003 C 1.52704296875 0.38500000000000006 1.47704296875 0.545 1.47704296875 0.6090000000000001 M 2.2590234375 0.5050000000000001 C 2.2590234375 0.5050000000000001 2.2730234375 0.48200000000000004 2.2730234375 0.4700000000000001 C 2.2730234375 0.4580000000000001 2.2510234375 0.44200000000000006 2.2370234375 0.44200000000000006 C 2.2250234375 0.44200000000000006 2.2160234375 0.4600000000000001 2.2160234375 0.4600000000000001 C 2.2160234375 0.4600000000000001 2.1690234375 0.558 2.0980234375 0.558 C 2.0880234375 0.558 2.0800234375 0.557 2.0720234375 0.554 C 2.1040234375 0.48800000000000004 2.1240234375 0.41400000000000003 2.1240234375 0.36100000000000004 C 2.1240234375 0.29900000000000004 2.0150234375 0.22600000000000003 1.9380234375 0.22600000000000003 C 1.8310234375 0.22600000000000003 1.7320234375 0.41900000000000004 1.7320234375 0.558 C 1.7320234375 0.63 1.8470234375 0.6960000000000001 1.9170234375 0.6960000000000001 C 1.9590234375 0.6960000000000001 1.9980234375 0.666 2.0310234375 0.6220000000000001 C 2.0450234375 0.623 2.0590234375 0.623 2.0710234375 0.623 C 2.1980234375 0.623 2.2590234375 0.5050000000000001 2.2590234375 0.5050000000000001 M 1.8520234375 0.5820000000000001 C 1.8520234375 0.4700000000000001 1.9340234375 0.30000000000000004 1.9850234375 0.30000000000000004 C 2.0050234375000002 0.30000000000000004 2.0320234375 0.31800000000000006 2.0320234375 0.34 C 2.0320234375 0.38800000000000007 2.0120234375 0.45600000000000007 1.9870234375 0.513 C 1.9640234375 0.517 1.9230234375 0.558 1.9230234375 0.5780000000000001 C 1.9230234375 0.5870000000000001 1.9280234375 0.5940000000000001 1.9360234375 0.6000000000000001 C 1.9220234375 0.617 1.9080234375 0.627 1.8970234375 0.627 C 1.8770234375000001 0.627 1.8520234375 0.6070000000000001 1.8520234375 0.5820000000000001 M 2.61700341796875 0.30300000000000005 C 2.61800341796875 0.29700000000000004 2.6210034179687502 0.28600000000000003 2.6210034179687502 0.279 C 2.6210034179687502 0.26100000000000007 2.55500341796875 0.22600000000000003 2.53600341796875 0.22600000000000003 C 2.52700341796875 0.22600000000000003 2.51800341796875 0.23100000000000004 2.51400341796875 0.24500000000000005 C 2.50200341796875 0.28600000000000003 2.47500341796875 0.42400000000000004 2.44400341796875 0.49700000000000005 C 2.43100341796875 0.528 2.37100341796875 0.617 2.33100341796875 0.617 C 2.32200341796875 0.617 2.30400341796875 0.6020000000000001 2.30400341796875 0.5890000000000001 C 2.30400341796875 0.547 2.36900341796875 0.32800000000000007 2.37500341796875 0.30300000000000005 C 2.37700341796875 0.29700000000000004 2.37900341796875 0.28600000000000003 2.37900341796875 0.279 C 2.37900341796875 0.26100000000000007 2.31300341796875 0.22600000000000003 2.29400341796875 0.22600000000000003 C 2.28500341796875 0.22600000000000003 2.27700341796875 0.23100000000000004 2.27200341796875 0.24500000000000005 C 2.24900341796875 0.30700000000000005 2.18400341796875 0.552 2.18400341796875 0.5990000000000001 C 2.18400341796875 0.641 2.26200341796875 0.6960000000000001 2.31400341796875 0.6960000000000001 C 2.35200341796875 0.6960000000000001 2.39600341796875 0.652 2.43400341796875 0.6080000000000001 C 2.43400341796875 0.6080000000000001 2.42100341796875 0.655 2.40500341796875 0.7090000000000001 C 2.29500341796875 0.775 2.20400341796875 0.8360000000000001 2.20400341796875 0.899 C 2.20400341796875 0.933 2.27900341796875 0.996 2.33200341796875 0.996 C 2.37100341796875 0.996 2.42800341796875 0.978 2.44500341796875 0.9450000000000001 C 2.45800341796875 0.918 2.4880034179687502 0.8150000000000001 2.51900341796875 0.6980000000000001 C 2.59900341796875 0.652 2.68500341796875 0.6030000000000001 2.73900341796875 0.5050000000000001 C 2.73900341796875 0.5050000000000001 2.75200341796875 0.48200000000000004 2.75200341796875 0.4700000000000001 C 2.75200341796875 0.4580000000000001 2.7300034179687502 0.44200000000000006 2.71800341796875 0.44200000000000006 C 2.70600341796875 0.44200000000000006 2.69600341796875 0.4600000000000001 2.69600341796875 0.4600000000000001 C 2.65800341796875 0.533 2.60000341796875 0.5860000000000001 2.53700341796875 0.629 L 2.54300341796875 0.6080000000000001 C 2.5770034179687498 0.4750000000000001 2.60900341796875 0.34400000000000003 2.61700341796875 0.30300000000000005 M 2.34900341796875 0.8840000000000001 C 2.33900341796875 0.905 2.30800341796875 0.918 2.29300341796875 0.918 C 2.28000341796875 0.918 2.26700341796875 0.903 2.26700341796875 0.891 C 2.26700341796875 0.863 2.31500341796875 0.8250000000000001 2.38400341796875 0.78 C 2.37000341796875 0.8260000000000001 2.35700341796875 0.867 2.34900341796875 0.8840000000000001 M 2.97198388671875 0.335 C 2.97198388671875 0.36300000000000004 2.94098388671875 0.48400000000000004 2.92098388671875 0.526 C 2.89298388671875 0.5840000000000001 2.84298388671875 0.619 2.82298388671875 0.619 C 2.80598388671875 0.619 2.78798388671875 0.6020000000000001 2.78798388671875 0.5790000000000001 C 2.78798388671875 0.49100000000000005 2.86798388671875 0.30600000000000005 2.91798388671875 0.30600000000000005 C 2.93398388671875 0.30600000000000005 2.97198388671875 0.31900000000000006 2.97198388671875 0.335 M 3.1899838867187498 0.4600000000000001 C 3.14098388671875 0.55 3.08698388671875 0.627 3.0569838867187498 0.627 C 3.04798388671875 0.627 3.02998388671875 0.6120000000000001 3.02998388671875 0.5990000000000001 C 3.02998388671875 0.519 3.09798388671875 0.35300000000000004 3.09798388671875 0.31800000000000006 C 3.09798388671875 0.29300000000000004 3.03798388671875 0.28600000000000003 3.01198388671875 0.28600000000000003 C 3.01198388671875 0.28600000000000003 2.96098388671875 0.22600000000000003 2.88098388671875 0.22600000000000003 C 2.78998388671875 0.22600000000000003 2.67098388671875 0.44700000000000006 2.67098388671875 0.5790000000000001 C 2.67098388671875 0.633 2.75398388671875 0.6960000000000001 2.79998388671875 0.6960000000000001 C 2.85098388671875 0.6960000000000001 2.91098388671875 0.63 2.91098388671875 0.63 C 2.91898388671875 0.658 3.00198388671875 0.6960000000000001 3.04698388671875 0.6960000000000001 C 3.11898388671875 0.6960000000000001 3.17798388671875 0.6050000000000001 3.23298388671875 0.5050000000000001 C 3.23298388671875 0.5050000000000001 3.24598388671875 0.48200000000000004 3.24598388671875 0.4700000000000001 C 3.24598388671875 0.4580000000000001 3.22498388671875 0.44200000000000006 3.21198388671875 0.44200000000000006 C 3.19898388671875 0.44200000000000006 3.1899838867187498 0.4600000000000001 3.1899838867187498 0.4600000000000001" fill="#a38178" fill-rule="nonzero"></path></g><g transform="matrix(1,0,0,1,0,0)"></g></g><defs><clipPath id="SvgjsClipPath1002"><path d=" M -1.0999999999999996 -0.6429760563548017 h 5.390002441406249 v 1.9719521127096036 h -5.390002441406249 Z"></path></clipPath></defs></svg>